# xmcd CD database file
#
# Track frame offsets:
#	150
#	36297
#	70520
#	96790
#	120002
#	162474
#	190116
#	240536
#
# Disc length: 3435 seconds
#
# Revision: 0
# Processed by: cddbd v1.5.2PL0 Copyright (c) Steve Scherf et al.
# Submitted via: CDex 1.70beta2
#
DISCID=5a0d6908
DTITLE=Michel Portal - Baïlador
DYEAR=2010
DGENRE=Jazz
TTITLE0=Dolce
TTITLE1=Baïlador
TTITLE2=Cuba si, Cuba no
TTITLE3=Ombres
TTITLE4=Citrus juice
TTITLE5=Alto Blues
TTITLE6=One on one
TTITLE7=Tutti no hystérique
EXTD=YEAR: 2010
EXTT0=
EXTT1=
EXTT2=
EXTT3=
EXTT4=
EXTT5=
EXTT6=
EXTT7=
PLAYORDER=
